<svg xmlns="http://www.w3.org/2000/svg" width="256" height="256" viewBox="0 0 100 100"><rect width="100" height="100" rx="20" fill="#35a2ca"></rect><path fill="#fff" d="M20.14 67.91L8.96 32.09L12.99 32.09Q13.64 32.09 14.06 32.41Q14.49 32.74 14.64 33.24L14.64 33.24L22.04 58.14Q22.24 58.81 22.40 59.59Q22.56 60.36 22.71 61.21L22.71 61.21Q22.89 60.36 23.06 59.57Q23.24 58.79 23.46 58.14L23.46 58.14L31.89 33.24Q32.04 32.81 32.47 32.45Q32.91 32.09 33.54 32.09L33.54 32.09L34.94 32.09Q35.59 32.09 36.00 32.41Q36.41 32.74 36.59 33.24L36.59 33.24L44.96 58.14Q45.41 59.44 45.76 61.11L45.76 61.11Q45.91 60.29 46.04 59.54Q46.16 58.79 46.36 58.14L46.36 58.14L53.79 33.24Q53.91 32.79 54.35 32.44Q54.79 32.09 55.41 32.09L55.41 32.09L59.19 32.09L48.01 67.91L43.66 67.91L34.59 40.59Q34.31 39.81 34.09 38.79L34.09 38.79Q33.96 39.29 33.85 39.75Q33.74 40.21 33.61 40.59L33.61 40.59L24.49 67.91L20.14 67.91ZM76.71 32.09L91.04 67.91L87.29 67.91Q86.64 67.91 86.24 67.59Q85.84 67.26 85.64 66.76L85.64 66.76L82.29 58.11L66.21 58.11L62.86 66.76Q62.69 67.21 62.26 67.56Q61.84 67.91 61.21 67.91L61.21 67.91L57.46 67.91L71.79 32.09L76.71 32.09ZM73.19 40.06L67.56 54.61L80.94 54.61L75.31 40.04Q74.76 38.69 74.24 36.66L74.24 36.66Q73.96 37.69 73.70 38.55Q73.44 39.41 73.19 40.06L73.19 40.06Z"></path></svg>